<svg width="1280" height="720" xmlns="http://www.w3.org/2000/svg" xmlns:xlink="http://www.w3.org/1999/xlink" overflow="hidden"><g><rect x="0" y="0" width="1280" height="720" fill="#FFFFFF"/><rect x="55.5001" y="36.5001" width="252" height="219" stroke="#000000" stroke-linejoin="round" stroke-miterlimit="10" fill="none"/><text font-family="Aptos,Aptos_MSFontService,sans-serif" font-weight="700" font-size="20" transform="translate(64.5874 60)">Paso</text><text font-family="Aptos,Aptos_MSFontService,sans-serif" font-weight="700" font-size="20" transform="translate(112.754 60)">1</text><text font-family="Aptos,Aptos_MSFontService,sans-serif" font-weight="700" font-size="20" transform="translate(123.421 60)">: Evaluación y ART</text><text font-family="Symbol,Symbol_MSFontService,sans-serif" font-weight="400" font-size="13.3333" transform="translate(64.5874 97)"></text><text font-family="Aptos,Aptos_MSFontService,sans-serif" font-weight="400" font-size="20" transform="translate(100.587 97)">Entender trabajo</text><text font-family="Symbol,Symbol_MSFontService,sans-serif" font-weight="400" font-size="13.3333" transform="translate(64.5874 133)"></text><text font-family="Aptos,Aptos_MSFontService,sans-serif" font-weight="400" font-size="20" transform="translate(100.587 133)">Identificar pasos</text><text font-family="Symbol,Symbol_MSFontService,sans-serif" font-weight="400" font-size="13.3333" transform="translate(64.5874 169)"></text><text font-family="Aptos,Aptos_MSFontService,sans-serif" font-weight="400" font-size="20" transform="translate(100.587 169)">Identificar peligros</text><text font-family="Symbol,Symbol_MSFontService,sans-serif" font-weight="400" font-size="13.3333" transform="translate(64.5874 206)"></text><text font-family="Aptos,Aptos_MSFontService,sans-serif" font-weight="400" font-size="20" transform="translate(100.587 206)">Evaluar riesgos</text><text font-family="Symbol,Symbol_MSFontService,sans-serif" font-weight="400" font-size="13.3333" transform="translate(64.5874 242)"></text><text font-family="Aptos,Aptos_MSFontService,sans-serif" font-weight="400" font-size="20" transform="translate(100.587 242)">Jerarquía de controles</text><rect x="389.5" y="73.5001" width="391" height="145" stroke="#000000" stroke-linejoin="round" stroke-miterlimit="10" fill="none"/><text font-family="Aptos,Aptos_MSFontService,sans-serif" font-weight="700" font-size="20" transform="translate(398.613 97)">Paso</text><text font-family="Aptos,Aptos_MSFontService,sans-serif" font-weight="700" font-size="20" transform="translate(446.779 97)">2</text><text font-family="Aptos,Aptos_MSFontService,sans-serif" font-weight="700" font-size="20" transform="translate(457.446 97)">: Aviso al Dueño de Área</text><text font-family="Symbol,Symbol_MSFontService,sans-serif" font-weight="400" font-size="13.3333" transform="translate(398.613 134)"></text><text font-family="Aptos,Aptos_MSFontService,sans-serif" font-weight="400" font-size="20" transform="translate(434.613 134)">Disponibilidad</text><text font-family="Symbol,Symbol_MSFontService,sans-serif" font-weight="400" font-size="13.3333" transform="translate(398.613 170)"></text><text font-family="Aptos,Aptos_MSFontService,sans-serif" font-weight="400" font-size="20" transform="translate(434.613 170)">Coordinación</text><text font-family="Symbol,Symbol_MSFontService,sans-serif" font-weight="400" font-size="13.3333" transform="translate(398.613 206)"></text><text font-family="Aptos,Aptos_MSFontService,sans-serif" font-weight="400" font-size="20" transform="translate(434.613 206)">Comunicación con operativos del área</text><rect x="862.5" y="51.5001" width="391" height="181" stroke="#000000" stroke-linejoin="round" stroke-miterlimit="10" fill="none"/><text font-family="Aptos,Aptos_MSFontService,sans-serif" font-weight="700" font-size="20" transform="translate(871.169 75)">Solicitud de permisos</text><text font-family="Symbol,Symbol_MSFontService,sans-serif" font-weight="400" font-size="13.3333" transform="translate(871.169 112)"></text><text font-family="Aptos,Aptos_MSFontService,sans-serif" font-weight="400" font-size="20" transform="translate(907.169 112)">Permiso General: Secciones</text><text font-family="Aptos,Aptos_MSFontService,sans-serif" font-weight="400" font-size="20" transform="translate(1153.67 112)">1</text><text font-family="Aptos,Aptos_MSFontService,sans-serif" font-weight="400" font-size="20" transform="translate(1168.34 112)">y</text><text font-family="Aptos,Aptos_MSFontService,sans-serif" font-weight="400" font-size="20" transform="translate(1181.34 112)">2</text><text font-family="Symbol,Symbol_MSFontService,sans-serif" font-weight="400" font-size="13.3333" transform="translate(871.169 148)"></text><text font-family="Aptos,Aptos_MSFontService,sans-serif" font-weight="400" font-size="20" transform="translate(907.169 148)">Permisos secundarios</text><text font-family="Symbol,Symbol_MSFontService,sans-serif" font-weight="400" font-size="13.3333" transform="translate(871.169 184)"></text><text font-family="Aptos,Aptos_MSFontService,sans-serif" font-weight="400" font-size="20" transform="translate(907.169 184)">Acceso a áreas productivas si aplica</text><text font-family="Symbol,Symbol_MSFontService,sans-serif" font-weight="400" font-size="13.3333" transform="translate(871.169 221)"></text><text font-family="Aptos,Aptos_MSFontService,sans-serif" font-weight="400" font-size="20" transform="translate(907.169 221)">Referencia cruzada entre permisos</text><path d="M307 141 370.814 141 370.814 143 307 143ZM369.481 138 377.481 142 369.481 146Z" fill="#156082"/><path d="M780 131 843.814 131 843.814 133 780 133ZM842.481 128 850.481 132 842.481 136Z" fill="#156082"/><rect x="919.5" y="297.5" width="303" height="255" stroke="#000000" stroke-linejoin="round" stroke-miterlimit="10" fill="none"/><text font-family="Aptos,Aptos_MSFontService,sans-serif" font-weight="700" font-size="20" transform="translate(928.283 321)">Implementación de controles</text><text font-family="Symbol,Symbol_MSFontService,sans-serif" font-weight="400" font-size="13.3333" transform="translate(928.283 358)"></text><text font-family="Aptos,Aptos_MSFontService,sans-serif" font-weight="400" font-size="20" transform="translate(964.283 358)">Barreras</text><text font-family="Symbol,Symbol_MSFontService,sans-serif" font-weight="400" font-size="13.3333" transform="translate(928.283 394)"></text><text font-family="Aptos,Aptos_MSFontService,sans-serif" font-weight="400" font-size="20" transform="translate(964.283 394)">Señalización</text><text font-family="Symbol,Symbol_MSFontService,sans-serif" font-weight="400" font-size="13.3333" transform="translate(928.283 430)"></text><text font-family="Aptos,Aptos_MSFontService,sans-serif" font-weight="400" font-size="20" transform="translate(964.283 430)">LOTO</text><text font-family="Symbol,Symbol_MSFontService,sans-serif" font-weight="400" font-size="13.3333" transform="translate(928.283 467)"></text><text font-family="Aptos,Aptos_MSFontService,sans-serif" font-weight="400" font-size="20" transform="translate(964.283 467)">EPP</text><text font-family="Symbol,Symbol_MSFontService,sans-serif" font-weight="400" font-size="13.3333" transform="translate(928.283 503)"></text><text font-family="Aptos,Aptos_MSFontService,sans-serif" font-weight="400" font-size="20" transform="translate(964.283 503)">Competencia del personal</text><text font-family="Symbol,Symbol_MSFontService,sans-serif" font-weight="400" font-size="13.3333" transform="translate(928.283 539)"></text><text font-family="Aptos,Aptos_MSFontService,sans-serif" font-weight="400" font-size="20" transform="translate(964.283 539)">Comunicación</text><path d="M1066 242 1066 281.198 1064 281.198 1064 242ZM1069 279.865 1065 287.865 1061 279.865Z" fill="#156082"/><rect x="530.5" y="290.5" width="332" height="270" stroke="#000000" stroke-linejoin="round" stroke-miterlimit="10" fill="none"/><text font-family="Aptos,Aptos_MSFontService,sans-serif" font-weight="700" font-size="20" transform="translate(539.727 314)">Revisión SME</text><text font-family="Symbol,Symbol_MSFontService,sans-serif" font-weight="400" font-size="13.3333" transform="translate(539.727 351)"></text><text font-family="Aptos,Aptos_MSFontService,sans-serif" font-weight="400" font-size="20" transform="translate(575.727 351)">Inspección en campo</text><text font-family="Symbol,Symbol_MSFontService,sans-serif" font-weight="400" font-size="13.3333" transform="translate(539.727 387)"></text><text font-family="Aptos,Aptos_MSFontService,sans-serif" font-weight="400" font-size="20" transform="translate(575.727 387)">Controles aplicados</text><text font-family="Symbol,Symbol_MSFontService,sans-serif" font-weight="400" font-size="13.3333" transform="translate(539.727 423)"></text><text font-family="Aptos,Aptos_MSFontService,sans-serif" font-weight="400" font-size="20" transform="translate(575.727 423)">Equipos adecuados</text><text font-family="Symbol,Symbol_MSFontService,sans-serif" font-weight="400" font-size="13.3333" transform="translate(539.727 460)"></text><text font-family="Aptos,Aptos_MSFontService,sans-serif" font-weight="400" font-size="20" transform="translate(575.727 460)">Riesgos</text><text font-family="Aptos,Aptos_MSFontService,sans-serif" font-weight="400" font-size="20" transform="translate(646.727 460)">≥</text><text font-family="Aptos,Aptos_MSFontService,sans-serif" font-weight="400" font-size="20" transform="translate(657.393 460)">36</text><text font-family="Aptos,Aptos_MSFontService,sans-serif" font-weight="400" font-size="20" transform="translate(682.727 460)">→</text><text font-family="Aptos,Aptos_MSFontService,sans-serif" font-weight="400" font-size="20" transform="translate(698.727 460)">documentación</text><text font-family="Aptos,Aptos_MSFontService,sans-serif" font-weight="400" font-size="20" transform="translate(575.727 485)">adicional</text><text font-family="Symbol,Symbol_MSFontService,sans-serif" font-weight="400" font-size="13.3333" transform="translate(539.727 522)"></text><text font-family="Aptos,Aptos_MSFontService,sans-serif" font-weight="400" font-size="20" transform="translate(575.727 522)">No condiciones</text><text font-family="Aptos,Aptos_MSFontService,sans-serif" font-weight="400" font-size="20" transform="translate(714.893 522)">→</text><text font-family="Aptos,Aptos_MSFontService,sans-serif" font-weight="400" font-size="20" transform="translate(730.893 522)">permiso no se</text><text font-family="Aptos,Aptos_MSFontService,sans-serif" font-weight="400" font-size="20" transform="translate(575.727 547)">libera</text><path d="M918.785 426 870.667 426 870.667 424 918.785 424ZM872 429 864 425 872 421Z" fill="#156082"/><rect x="216.5" y="290.5" width="253" height="285" stroke="#000000" stroke-linejoin="round" stroke-miterlimit="10" fill="none"/><text font-family="Aptos,Aptos_MSFontService,sans-serif" font-weight="700" font-size="20" transform="translate(226.056 314)">Autorización del Dueño</text><text font-family="Aptos,Aptos_MSFontService,sans-serif" font-weight="700" font-size="20" transform="translate(226.056 340)">de Área</text><text font-family="Symbol,Symbol_MSFontService,sans-serif" font-weight="400" font-size="13.3333" transform="translate(226.056 376)"></text><text font-family="Aptos,Aptos_MSFontService,sans-serif" font-weight="400" font-size="20" transform="translate(262.056 376)">Verificación presencial</text><text font-family="Symbol,Symbol_MSFontService,sans-serif" font-weight="400" font-size="13.3333" transform="translate(226.056 413)"></text><text font-family="Aptos,Aptos_MSFontService,sans-serif" font-weight="400" font-size="20" transform="translate(262.056 413)">Comparación con</text><text font-family="Aptos,Aptos_MSFontService,sans-serif" font-weight="400" font-size="20" transform="translate(262.056 438)">permisos secundarios</text><text font-family="Symbol,Symbol_MSFontService,sans-serif" font-weight="400" font-size="13.3333" transform="translate(226.056 475)"></text><text font-family="Aptos,Aptos_MSFontService,sans-serif" font-weight="400" font-size="20" transform="translate(262.056 475)">Colocación visible del</text><text font-family="Aptos,Aptos_MSFontService,sans-serif" font-weight="400" font-size="20" transform="translate(262.056 500)">permiso</text><text font-family="Symbol,Symbol_MSFontService,sans-serif" font-weight="400" font-size="13.3333" transform="translate(226.056 537)"></text><text font-family="Aptos,Aptos_MSFontService,sans-serif" font-weight="400" font-size="20" transform="translate(262.056 537)">Inicio formal del</text><text font-family="Aptos,Aptos_MSFontService,sans-serif" font-weight="400" font-size="20" transform="translate(262.056 562)">trabajo</text><path d="M525.785 410 477.667 410 477.667 408 525.785 408ZM479 413 471 409 479 405Z" fill="#156082"/><rect x="13.5001" y="332.5" width="168" height="186" stroke="#000000" stroke-linejoin="round" stroke-miterlimit="10" fill="none"/><text font-family="Aptos,Aptos_MSFontService,sans-serif" font-weight="700" font-size="20" transform="translate(23.0691 356)">Ejecución</text><text font-family="Symbol,Symbol_MSFontService,sans-serif" font-weight="400" font-size="13.3333" transform="translate(23.0691 393)"></text><text font-family="Aptos,Aptos_MSFontService,sans-serif" font-weight="400" font-size="20" transform="translate(59.0691 393)">Cumplimien</text><text font-family="Aptos,Aptos_MSFontService,sans-serif" font-weight="400" font-size="20" transform="translate(59.0691 418)">to estricto</text><text font-family="Aptos,Aptos_MSFontService,sans-serif" font-weight="400" font-size="20" transform="translate(59.0691 444)">del permiso</text><text font-family="Symbol,Symbol_MSFontService,sans-serif" font-weight="400" font-size="13.3333" transform="translate(23.0691 480)"></text><text font-family="Aptos,Aptos_MSFontService,sans-serif" font-weight="400" font-size="20" transform="translate(59.0691 480)">Detener si</text><text font-family="Aptos,Aptos_MSFontService,sans-serif" font-weight="400" font-size="20" transform="translate(59.0691 506)">algo cambia</text><path d="M211.457 426 191.667 426 191.667 424 211.457 424ZM193 429 185 425 193 421Z" fill="#156082"/><path d="M0 653 1130.13 653" stroke="#156082" stroke-width="6" stroke-miterlimit="8" fill="none" fill-rule="evenodd"/><path d="M0 671 1130.13 671" stroke="#FFC000" stroke-width="6" stroke-miterlimit="8" fill="none" fill-rule="evenodd"/><path d="M0 689 1130.13 689" stroke="#156082" stroke-width="6" stroke-miterlimit="8" fill="none" fill-rule="evenodd"/><g><g><g><path d="M1168.27 626.583 1181.79 626.583 1181.79 633.958 1216.21 633.958 1216.21 626.583 1229.73 626.583 1229.73 702.792 1168.27 702.792 1168.27 626.583ZM1199.12 616.75C1201.09 616.75 1202.69 618.471 1202.69 620.438 1202.69 622.527 1201.09 624.125 1199 624.125 1196.91 624.125 1195.31 622.527 1195.31 620.438 1195.31 618.348 1196.91 616.75 1199.12 616.75ZM1160.9 624.125 1160.9 705.25C1160.9 707.954 1163.11 710.167 1165.81 710.167L1232.19 710.167C1234.89 710.167 1237.1 707.954 1237.1 705.25L1237.1 624.125C1237.1 621.421 1234.89 619.208 1232.19 619.208L1211.29 619.208 1211.29 616.75C1211.29 614.046 1209.08 611.833 1206.38 611.833L1191.62 611.833C1188.92 611.833 1186.71 614.046 1186.71 616.75L1186.71 619.208 1165.81 619.208C1163.11 619.208 1160.9 621.421 1160.9 624.125Z" fill="#FFC000"/><path d="M1175.65 643.792 1196.54 643.792 1196.54 648.708 1175.65 648.708Z" fill="#FFC000"/><path d="M1175.65 658.542 1196.54 658.542 1196.54 663.458 1175.65 663.458Z" fill="#FFC000"/><path d="M1175.65 673.292 1196.54 673.292 1196.54 678.208 1175.65 678.208Z" fill="#FFC000"/><path d="M1175.65 688.042 1196.54 688.042 1196.54 692.958 1175.65 692.958Z" fill="#FFC000"/><path d="M1205.02 646.004 1207.6 643.423 1210.8 646.619 1218.91 638.506 1221.49 641.088 1210.8 651.781Z" fill="#FFC000"/><path d="M1205.02 660.754 1207.6 658.173 1210.8 661.369 1218.91 653.256 1221.49 655.838 1210.8 666.531Z" fill="#FFC000"/><path d="M1205.02 675.504 1207.6 672.923 1210.8 676.119 1218.91 668.006 1221.49 670.588 1210.8 681.281Z" fill="#FFC000"/><path d="M1205.02 690.254 1207.6 687.673 1210.8 690.869 1218.91 682.756 1221.49 685.338 1210.8 696.031Z" fill="#FFC000"/></g></g></g></g></svg>